<svg width="50" height="42" viewBox="0 0 50 42" fill="none" xmlns="http://www.w3.org/2000/svg">
<g clip-path="url(#clip0_307_152)">
<path d="M34.7197 8.22287C36.8751 9.48582 39.6762 8.81166 40.9757 6.71688C42.2752 4.62211 41.5811 1.89972 39.4253 0.636773C37.2704 -0.626175 34.4693 0.0478006 33.1698 2.14276C31.8703 4.23793 32.564 6.96012 34.7197 8.22287Z" fill="#40221180"/>
<path d="M49.9897 7.37596C49.9942 7.33644 49.9966 7.31453 49.9966 7.31453C49.9954 7.315 49.9938 7.31606 49.9924 7.31664C50.0658 6.27386 49.6405 5.21359 48.7466 4.49944C47.277 3.32534 45.1066 3.53148 43.8989 4.95958L30.0146 21.3757H30.973C33.5423 21.3757 35.6328 23.4078 35.6328 25.9048V33.0196C45.3485 25.3402 48.5958 14.4618 49.5922 9.70147C49.827 8.57882 49.9372 7.79792 49.9772 7.47835C49.9814 7.44413 49.9867 7.41018 49.9897 7.37596Z" fill="#40221180"/>
<path d="M15.3736 21.3757H29.2315C29.2474 21.3563 29.2606 21.3356 29.2768 21.3165L37.0371 12.1412C36.8521 10.7777 36.0698 9.7158 35.1423 9.19123C33.6022 8.32018 31.3744 9.48658 30.3856 11.2854C29.7436 12.242 29.0088 13.3889 28.1792 14.5546C28.4528 14.3702 28.7219 14.1753 28.9854 13.9674C30.7838 12.5437 31.6589 11.0645 31.6672 11.0496C32.0251 10.4239 32.704 10.0361 33.4398 10.0361C33.7817 10.0361 34.1208 10.1219 34.4211 10.2835C35.3975 10.8095 35.7518 12.0101 35.2105 12.9599C34.9217 13.4494 33.8483 15.128 31.7681 16.8405C29.6699 18.5726 26.1043 20.6377 21.0337 20.6377H21.0145C20.6168 20.6377 20.2092 20.6249 19.8028 20.5995C19.2625 20.566 18.7679 20.3296 18.4108 19.9343C18.4074 19.9306 18.4048 19.9266 18.4015 19.9229H15.0022C14.4611 19.9229 13.9445 20.0868 13.5077 20.3972L3.49614 27.5097C2.36703 28.3117 2.12071 29.8517 2.94633 30.9493C2.96374 30.9724 2.98391 30.9922 3.00192 31.0145L10.7182 25.7208C10.8181 23.3088 12.8678 21.3757 15.3736 21.3757Z" fill="#40221180"/>
<path d="M1.45502 32.7991C-0.0976879 33.8668 -0.465685 35.9558 0.632756 37.4651C1.73162 38.974 3.88104 39.3316 5.43376 38.264L10.7135 34.6418V26.4472L1.45502 32.7991Z" fill="#40221180"/>
<path d="M29.9362 28.5453C31.0411 28.5453 31.9368 27.6748 31.9368 26.6009C31.9368 25.527 31.0411 24.6565 29.9362 24.6565C28.8313 24.6565 27.9355 25.527 27.9355 26.6009C27.9355 27.6748 28.8313 28.5453 29.9362 28.5453Z" fill="#40221180"/>
<path d="M35.0093 37.4713C35.0168 37.3734 35.0247 37.2756 35.0247 37.1759V25.9046C35.0247 23.7297 33.2105 21.9666 30.9728 21.9666H15.374C13.1359 21.9666 11.3221 23.7297 11.3221 25.9046V37.1759C11.3221 37.2756 11.33 37.3734 11.3375 37.4713H11.0174C10.9186 37.4713 10.8219 37.4791 10.7263 37.4908C9.57723 37.6302 8.6875 38.5809 8.6875 39.7356C8.6875 40.9863 9.73055 42 11.0174 42H35.329C36.6158 42 37.6589 40.9863 37.6589 39.7356C37.6589 38.5809 36.7692 37.6302 35.6201 37.4908C35.5245 37.4791 35.4278 37.4713 35.329 37.4713H35.0093ZM29.9361 23.6474C31.6142 23.6474 32.975 24.9697 32.975 26.6009C32.975 28.2321 31.6142 29.5544 29.9361 29.5544C28.2575 29.5544 26.8971 28.2321 26.8971 26.6009C26.8971 24.9697 28.2575 23.6474 29.9361 23.6474Z" fill="#40221180"/>
<path d="M21.0146 20.2438C21.0211 20.2438 21.0276 20.2438 21.034 20.2438C25.778 20.2439 29.2773 18.3804 31.5061 16.5401C33.7491 14.694 34.7914 12.8779 34.8565 12.769C35.2898 12.0083 35.0076 11.0497 34.2245 10.628C33.4424 10.2062 32.4572 10.4799 32.0227 11.2397L32.0223 11.2395L32.0211 11.2412L32.0213 11.2414L32.0215 11.2415C32.0215 11.2416 32.0215 11.2416 32.0215 11.2416L32.0213 11.2414C31.9618 11.3456 31.0431 12.846 29.2411 14.2732C27.417 15.7133 24.763 17.0885 21.0146 17.0932C20.6972 17.0932 20.371 17.0834 20.0366 17.0623C19.1431 17.0063 18.3725 17.6649 18.3149 18.5333C18.2574 19.4013 18.935 20.1506 19.8285 20.2065C20.2305 20.2316 20.6262 20.2438 21.0146 20.2438Z" fill="#40221180"/>
</g>
<defs>
<clipPath id="clip0_307_152">
<rect width="50" height="42" fill="white"/>
</clipPath>
</defs>
</svg>
