<svg width="920" height="159" viewBox="0 0 920 159" fill="none" xmlns="http://www.w3.org/2000/svg">
<path d="M0.4 156V154L4 152.8C6.66667 151.867 8.46667 150.6 9.4 149C10.3333 147.4 10.8 145.267 10.8 142.6C10.9333 134.6 11 126.533 11 118.4C11 110.267 11 102.133 11 94V86C11 78 11 70 11 62C11 53.8667 10.9333 45.8 10.8 37.8C10.8 35.1333 10.4 33 9.6 31.4C8.93333 29.8 7.33333 28.5333 4.8 27.6L0.4 26V24H97.2L98.6 57.2H96.6L85.2 36.2C83.8667 33.6667 82.3333 31.6667 80.6 30.2C78.8667 28.7333 76.4667 28 73.4 28H41.2C41.0667 37.4667 41 47.1333 41 57C41 66.8667 41 76.6667 41 86.4H61.8C64.8667 86.4 67.1333 85.7333 68.6 84.4C70.0667 83.0667 71.4667 81.1333 72.8 78.6L77 71H79V106H77L72.6 98.4C71.2667 96 69.8667 94.0667 68.4 92.6C67.0667 91.1333 64.8667 90.4 61.8 90.4H41C41 99.7333 41 108.667 41 117.2C41 125.6 41.0667 133.867 41.2 142C41.2 147.2 43.7333 150.6 48.8 152.2L54.8 154V156H0.4ZM147.661 56.8C156.328 56.8 163.728 58.6 169.861 62.2C175.994 65.6667 180.661 70.4667 183.861 76.6C187.194 82.6 188.861 89.4667 188.861 97.2C188.861 98.6667 188.794 100.2 188.661 101.8C188.528 103.267 188.261 104.6 187.861 105.8H128.261C128.394 120.2 130.928 130.6 135.861 137C140.928 143.267 148.394 146.4 158.261 146.4C164.928 146.4 170.328 145.333 174.461 143.2C178.594 141.067 182.461 137.933 186.061 133.8L188.061 135.6C183.928 142.933 178.394 148.667 171.461 152.8C164.661 156.933 156.461 159 146.861 159C137.394 159 128.994 157 121.661 153C114.328 148.867 108.594 143 104.461 135.4C100.328 127.8 98.2609 118.733 98.2609 108.2C98.2609 97.2667 100.661 88 105.461 80.4C110.261 72.6667 116.394 66.8 123.861 62.8C131.461 58.8 139.394 56.8 147.661 56.8ZM147.061 60.8C143.194 60.8 139.861 62 137.061 64.4C134.394 66.6667 132.261 70.8 130.661 76.8C129.194 82.6667 128.394 91 128.261 101.8H162.461C163.794 87.2667 163.261 76.8 160.861 70.4C158.461 64 153.861 60.8 147.061 60.8ZM233.428 159C226.895 159 221.028 158.2 215.828 156.6C210.628 155.133 205.828 153.267 201.428 151L201.628 127.2H203.628L210.428 139.2C213.361 144.533 216.561 148.533 220.028 151.2C223.628 153.733 228.161 155 233.628 155C240.028 155 245.161 153.6 249.028 150.8C253.028 147.867 255.028 144 255.028 139.2C255.028 134.8 253.628 131.2 250.828 128.4C248.028 125.6 242.828 123.067 235.228 120.8L226.828 118.2C218.695 115.8 212.295 112.067 207.628 107C202.961 101.933 200.628 95.7333 200.628 88.4C200.628 79.6 204.095 72.1333 211.028 66C217.961 59.8667 227.895 56.8 240.828 56.8C246.028 56.8 250.895 57.4 255.428 58.6C260.095 59.6667 264.561 61.3333 268.828 63.6L267.628 85.2H265.628L258.628 72.8C256.095 68.4 253.561 65.3333 251.028 63.6C248.628 61.7333 244.961 60.8 240.028 60.8C235.495 60.8 231.228 62.0667 227.228 64.6C223.228 67.1333 221.228 70.7333 221.228 75.4C221.228 79.9333 222.895 83.5333 226.228 86.2C229.695 88.8667 234.761 91.3333 241.428 93.6L250.428 96.2C260.028 99.1333 266.895 103.2 271.028 108.4C275.161 113.467 277.228 119.6 277.228 126.8C277.228 136.533 273.361 144.333 265.628 150.2C258.028 156.067 247.295 159 233.428 159ZM286.538 156V152.8L341.138 63.8H310.938C307.471 63.8 304.738 64.7333 302.738 66.6C300.738 68.4667 298.871 70.9333 297.138 74L289.938 87.4H287.938L289.338 59.8H369.338V62.6L315.938 152H347.338C351.604 152 354.738 151 356.738 149C358.738 147 360.604 144.267 362.338 140.8L369.338 126H371.338L369.538 156H286.538ZM429.106 56.8C437.773 56.8 445.173 58.6 451.306 62.2C457.44 65.6667 462.106 70.4667 465.306 76.6C468.64 82.6 470.306 89.4667 470.306 97.2C470.306 98.6667 470.24 100.2 470.106 101.8C469.973 103.267 469.706 104.6 469.306 105.8H409.706C409.84 120.2 412.373 130.6 417.306 137C422.373 143.267 429.84 146.4 439.706 146.4C446.373 146.4 451.773 145.333 455.906 143.2C460.04 141.067 463.906 137.933 467.506 133.8L469.506 135.6C465.373 142.933 459.84 148.667 452.906 152.8C446.106 156.933 437.906 159 428.306 159C418.84 159 410.44 157 403.106 153C395.773 148.867 390.04 143 385.906 135.4C381.773 127.8 379.706 118.733 379.706 108.2C379.706 97.2667 382.106 88 386.906 80.4C391.706 72.6667 397.84 66.8 405.306 62.8C412.906 58.8 420.84 56.8 429.106 56.8ZM428.506 60.8C424.64 60.8 421.306 62 418.506 64.4C415.84 66.6667 413.706 70.8 412.106 76.8C410.64 82.6667 409.84 91 409.706 101.8H443.906C445.24 87.2667 444.706 76.8 442.306 70.4C439.906 64 435.306 60.8 428.506 60.8ZM514.873 159C508.34 159 502.473 158.2 497.273 156.6C492.073 155.133 487.273 153.267 482.873 151L483.073 127.2H485.073L491.873 139.2C494.807 144.533 498.007 148.533 501.473 151.2C505.073 153.733 509.607 155 515.073 155C521.473 155 526.607 153.6 530.473 150.8C534.473 147.867 536.473 144 536.473 139.2C536.473 134.8 535.073 131.2 532.273 128.4C529.473 125.6 524.273 123.067 516.673 120.8L508.273 118.2C500.14 115.8 493.74 112.067 489.073 107C484.407 101.933 482.073 95.7333 482.073 88.4C482.073 79.6 485.54 72.1333 492.473 66C499.407 59.8667 509.34 56.8 522.273 56.8C527.473 56.8 532.34 57.4 536.873 58.6C541.54 59.6667 546.007 61.3333 550.273 63.6L549.073 85.2H547.073L540.073 72.8C537.54 68.4 535.007 65.3333 532.473 63.6C530.073 61.7333 526.407 60.8 521.473 60.8C516.94 60.8 512.673 62.0667 508.673 64.6C504.673 67.1333 502.673 70.7333 502.673 75.4C502.673 79.9333 504.34 83.5333 507.673 86.2C511.14 88.8667 516.207 91.3333 522.873 93.6L531.873 96.2C541.473 99.1333 548.34 103.2 552.473 108.4C556.607 113.467 558.673 119.6 558.673 126.8C558.673 136.533 554.807 144.333 547.073 150.2C539.473 156.067 528.74 159 514.873 159ZM645.138 158.6L611.338 156V154L613.338 153.6C618.538 152.4 621.138 149.067 621.138 143.6V36.6C621.138 33.8 620.671 31.6667 619.738 30.2C618.938 28.7333 617.204 27.7333 614.538 27.2L611.738 26.4V24.4L647.338 15.8L649.738 17.6L648.938 45.8V66C653.338 62.9333 658.138 60.6667 663.338 59.2C668.538 57.6 673.804 56.8 679.138 56.8C686.738 56.8 693.471 58.6 699.338 62.2C705.204 65.6667 709.804 71.1333 713.138 78.6C716.604 85.9333 718.338 95.4 718.338 107C718.338 118.6 716.404 128.267 712.537 136C708.804 143.6 703.738 149.333 697.338 153.2C691.071 157.067 684.138 159 676.538 159C671.604 159 666.604 158.333 661.538 157C656.604 155.667 652.204 153.8 648.338 151.4L645.138 158.6ZM666.538 152.2C670.804 152.2 674.538 150.867 677.738 148.2C680.938 145.533 683.471 141 685.338 134.6C687.204 128.067 688.138 119.133 688.138 107.8C688.138 96.4667 687.271 87.7333 685.538 81.6C683.804 75.4667 681.338 71.2 678.138 68.8C675.071 66.4 671.338 65.2 666.938 65.2C660.671 65.2 654.871 66.9333 649.538 70.4V147.2C652.071 148.8 654.671 150.067 657.338 151C660.004 151.8 663.071 152.2 666.538 152.2ZM778.92 159C768.787 159 759.987 156.933 752.52 152.8C745.054 148.533 739.254 142.533 735.12 134.8C731.12 127.067 729.12 118 729.12 107.6C729.12 97.2 731.254 88.2 735.52 80.6C739.92 73 745.854 67.1333 753.32 63C760.92 58.8667 769.454 56.8 778.92 56.8C788.387 56.8 796.854 58.8667 804.32 63C811.787 67 817.654 72.8 821.92 80.4C826.32 88 828.52 97.0667 828.52 107.6C828.52 118.133 826.454 127.267 822.32 135C818.32 142.6 812.587 148.533 805.12 152.8C797.787 156.933 789.054 159 778.92 159ZM778.92 155C783.587 155 787.32 153.667 790.12 151C792.92 148.333 794.92 143.6 796.12 136.8C797.454 130 798.12 120.4 798.12 108C798.12 95.4667 797.454 85.8 796.12 79C794.92 72.2 792.92 67.4667 790.12 64.8C787.32 62.1333 783.587 60.8 778.92 60.8C774.254 60.8 770.454 62.1333 767.52 64.8C764.72 67.4667 762.654 72.2 761.32 79C760.12 85.8 759.52 95.4667 759.52 108C759.52 120.4 760.12 130 761.32 136.8C762.654 143.6 764.72 148.333 767.52 151C770.454 153.667 774.254 155 778.92 155ZM790.92 44.4L787.92 42.6L797.72 11.8C799.187 7.13333 800.854 3.99999 802.72 2.4C804.72 0.799995 806.787 -6.19888e-06 808.92 -6.19888e-06C811.187 -6.19888e-06 813.12 0.733326 814.72 2.19999C816.454 3.66666 817.32 5.66666 817.32 8.2C817.32 9.79999 816.787 11.6 815.72 13.6C814.654 15.4667 813.187 17.5333 811.32 19.8L790.92 44.4ZM761.72 44.4L758.72 42.6L768.32 11.8C769.787 7.13333 771.454 3.99999 773.32 2.4C775.32 0.799995 777.387 -6.19888e-06 779.52 -6.19888e-06C781.787 -6.19888e-06 783.787 0.733326 785.52 2.19999C787.254 3.66666 788.12 5.66666 788.12 8.2C788.12 9.79999 787.52 11.6 786.32 13.6C785.254 15.4667 783.787 17.5333 781.92 19.8L761.72 44.4ZM837.305 156V154L840.305 153.2C842.971 152.4 844.771 151.2 845.705 149.6C846.771 148 847.305 145.933 847.305 143.4V80.8C847.305 77.8667 846.771 75.7333 845.705 74.4C844.771 72.9333 842.971 71.9333 840.305 71.4L837.305 70.6V68.6L871.705 57L873.705 59L875.505 76.2V77.8C877.371 74.0667 879.771 70.6667 882.705 67.6C885.771 64.4 889.105 61.8 892.705 59.8C896.438 57.8 900.105 56.8 903.705 56.8C908.771 56.8 912.638 58.2 915.305 61C917.971 63.8 919.305 67.3333 919.305 71.6C919.305 76.1333 917.971 79.6667 915.305 82.2C912.771 84.6 909.705 85.8 906.105 85.8C900.505 85.8 895.571 83 891.305 77.4L890.905 77C889.571 75.1333 888.038 74.1333 886.305 74C884.571 73.7333 882.971 74.5333 881.505 76.4C880.171 77.6 879.038 79.0667 878.105 80.8C877.305 82.4 876.505 84.2667 875.705 86.4V142.2C875.705 147.533 878.038 150.867 882.705 152.2L889.105 154V156H837.305Z" fill="#231309" fill-opacity="0.05"/>
</svg>
