<svg width="881" height="158" viewBox="0 0 881 158" fill="none" xmlns="http://www.w3.org/2000/svg">
<path d="M0.4 155V153L4.4 151.4C7.06667 150.467 8.8 149.2 9.6 147.6C10.5333 146 11 143.933 11 141.4V36.8C11 34.1333 10.5333 32 9.6 30.4C8.8 28.8 7.06667 27.5333 4.4 26.6L0.4 25V23H51.2V25L47.8 26.4C45.2667 27.3333 43.5333 28.6 42.6 30.2C41.6667 31.6667 41.2 33.7333 41.2 36.4V85H89V36.4C89 33.7333 88.5333 31.6667 87.6 30.2C86.8 28.6 85.0667 27.3333 82.4 26.4L78.8 25V23H129.8V25L125.8 26.6C123.267 27.5333 121.533 28.8 120.6 30.4C119.667 32 119.2 34.1333 119.2 36.8V141.4C119.2 143.933 119.667 146 120.6 147.6C121.533 149.2 123.267 150.467 125.8 151.4L129.8 153V155H78.8V153L82.4 151.8C85.0667 150.733 86.8 149.467 87.6 148C88.5333 146.4 89 144.267 89 141.6V89H41.2V141.6C41.2 146.533 43.4 149.933 47.8 151.8L51.2 153V155H0.4ZM163.575 158C155.842 158 149.308 155.8 143.975 151.4C138.775 147 136.175 140.667 136.175 132.4C136.175 126.133 139.375 120.4 145.775 115.2C152.175 109.867 162.242 105.867 175.975 103.2C178.108 102.8 180.508 102.4 183.175 102C185.842 101.467 188.642 100.933 191.575 100.4V84.6C191.575 75.5333 190.442 69.2 188.175 65.6C186.042 61.8667 182.642 60 177.975 60C174.775 60 172.242 61.0667 170.375 63.2C168.508 65.2 167.308 68.7333 166.775 73.8L166.375 76C166.108 81.7333 164.708 85.9333 162.175 88.6C159.642 91.2667 156.508 92.6 152.775 92.6C149.308 92.6 146.442 91.5333 144.175 89.4C141.908 87.2667 140.775 84.4 140.775 80.8C140.775 75.3333 142.642 70.7333 146.375 67C150.242 63.2667 155.308 60.4667 161.575 58.6C167.842 56.7333 174.642 55.8 181.975 55.8C193.842 55.8 202.975 58.7333 209.375 64.6C215.908 70.3333 219.175 79.7333 219.175 92.8V137C219.175 143 221.975 146 227.575 146H231.975L233.775 147.6C231.242 150.8 228.442 153.267 225.375 155C222.442 156.733 218.242 157.6 212.775 157.6C206.908 157.6 202.242 156.267 198.775 153.6C195.442 150.8 193.242 147.133 192.175 142.6C188.175 146.867 184.042 150.533 179.775 153.6C175.642 156.533 170.242 158 163.575 158ZM175.775 145.8C178.442 145.8 180.908 145.2 183.175 144C185.575 142.667 188.375 140.667 191.575 138V104.4C190.242 104.667 188.908 104.933 187.575 105.2C186.242 105.467 184.708 105.733 182.975 106C176.842 107.6 171.908 110.333 168.175 114.2C164.575 117.933 162.775 123 162.775 129.4C162.775 134.867 164.042 139 166.575 141.8C169.108 144.467 172.175 145.8 175.775 145.8ZM237.5 155V153L240.5 152.2C243.167 151.4 244.967 150.2 245.9 148.6C246.967 147 247.5 144.933 247.5 142.4V79.8C247.5 76.8667 246.967 74.7333 245.9 73.4C244.967 71.9333 243.167 70.9333 240.5 70.4L237.5 69.6V67.6L271.9 56L273.9 58L275.7 75.2V76.8C277.567 73.0667 279.967 69.6667 282.9 66.6C285.967 63.4 289.3 60.8 292.9 58.8C296.633 56.8 300.3 55.8 303.9 55.8C308.967 55.8 312.833 57.2 315.5 60C318.167 62.8 319.5 66.3333 319.5 70.6C319.5 75.1333 318.167 78.6667 315.5 81.2C312.967 83.6 309.9 84.8 306.3 84.8C300.7 84.8 295.767 82 291.5 76.4L291.1 76C289.767 74.1333 288.233 73.1333 286.5 73C284.767 72.7333 283.167 73.5333 281.7 75.4C280.367 76.6 279.233 78.0667 278.3 79.8C277.5 81.4 276.7 83.2667 275.9 85.4V141.2C275.9 146.533 278.233 149.867 282.9 151.2L289.3 153V155H237.5ZM325.781 155V153L328.581 152.2C331.115 151.533 332.848 150.4 333.781 148.8C334.848 147.2 335.448 145.067 335.581 142.4V79.8C335.581 76.8667 335.115 74.7333 334.181 73.4C333.248 71.9333 331.448 70.9333 328.781 70.4L325.781 69.6V67.6L359.981 56L361.981 58L363.581 71.6C367.981 67.2 372.981 63.4667 378.581 60.4C384.315 57.3333 390.248 55.8 396.381 55.8C402.781 55.8 407.915 57.1333 411.781 59.8C415.648 62.3333 418.581 66.3333 420.581 71.8C425.781 66.8667 431.381 63 437.381 60.2C443.515 57.2667 449.448 55.8 455.181 55.8C464.648 55.8 471.581 58.0667 475.981 62.6C480.515 67.1333 482.781 74.2667 482.781 84V142.6C482.781 147.8 485.181 151.067 489.981 152.4L492.181 153V155H445.981V153L447.981 152.4C450.515 151.6 452.248 150.4 453.181 148.8C454.248 147.2 454.781 145.067 454.781 142.4V81.2C454.781 75.6 453.781 71.8 451.781 69.8C449.781 67.6667 446.581 66.6 442.181 66.6C438.715 66.6 435.315 67.4 431.981 69C428.781 70.4667 425.381 72.7333 421.781 75.8C422.448 77.9333 422.848 80.2667 422.981 82.8C423.248 85.3333 423.381 88 423.381 90.8V142.6C423.515 147.8 425.915 151.067 430.581 152.4L432.381 153V155H385.981V153L388.781 152.2C391.315 151.4 393.048 150.267 393.981 148.8C395.048 147.2 395.581 145.067 395.581 142.4V81.4C395.581 76.0667 394.581 72.2667 392.581 70C390.715 67.7333 387.448 66.6 382.781 66.6C379.715 66.6 376.648 67.4 373.581 69C370.515 70.4667 367.315 72.6667 363.981 75.6V142.6C363.981 147.8 366.315 151.067 370.981 152.4L372.781 153V155H325.781ZM550.6 158C540.467 158 531.667 155.933 524.2 151.8C516.733 147.533 510.933 141.533 506.8 133.8C502.8 126.067 500.8 117 500.8 106.6C500.8 96.2 502.933 87.2 507.2 79.6C511.6 72 517.533 66.1333 525 62C532.6 57.8667 541.133 55.8 550.6 55.8C560.067 55.8 568.533 57.8667 576 62C583.467 66 589.333 71.8 593.6 79.4C598 87 600.2 96.0667 600.2 106.6C600.2 117.133 598.133 126.267 594 134C590 141.6 584.267 147.533 576.8 151.8C569.467 155.933 560.733 158 550.6 158ZM550.6 154C555.267 154 559 152.667 561.8 150C564.6 147.333 566.6 142.6 567.8 135.8C569.133 129 569.8 119.4 569.8 107C569.8 94.4667 569.133 84.8 567.8 78C566.6 71.2 564.6 66.4667 561.8 63.8C559 61.1333 555.267 59.8 550.6 59.8C545.933 59.8 542.133 61.1333 539.2 63.8C536.4 66.4667 534.333 71.2 533 78C531.8 84.8 531.2 94.4667 531.2 107C531.2 119.4 531.8 129 533 135.8C534.333 142.6 536.4 147.333 539.2 150C542.133 152.667 545.933 154 550.6 154ZM539 40.4C540.867 36.9333 543 33.0667 545.4 28.8C547.8 24.4 550.667 19.0667 554 12.8C556.267 8.53333 558.467 5.46666 560.6 3.59999C562.733 1.6 565.2 0.599997 568 0.599997C570.533 0.599997 572.733 1.46666 574.6 3.19999C576.467 4.79999 577.4 6.79999 577.4 9.19999C577.4 11.7333 576.533 14.1333 574.8 16.4C573.067 18.5333 570.133 21.0667 566 24C560.267 28 555.467 31.5333 551.6 34.6C547.733 37.5333 544.267 40.1333 541.2 42.4L539 40.4ZM608.984 155V153L611.784 152.2C616.451 150.867 618.784 147.6 618.784 142.4V79.8C618.784 76.8667 618.318 74.7333 617.384 73.4C616.451 71.9333 614.651 70.9333 611.984 70.4L608.984 69.6V67.6L643.184 56L645.184 58L646.784 70C651.451 65.8667 656.718 62.4667 662.584 59.8C668.451 57.1333 674.251 55.8 679.984 55.8C688.784 55.8 695.518 58.2 700.184 63C704.984 67.8 707.384 75.1333 707.384 85V142.6C707.384 147.8 709.918 151.067 714.984 152.4L716.784 153V155H669.584V153L672.184 152.2C676.851 150.733 679.184 147.467 679.184 142.4V78.6C679.184 70.0667 674.918 65.8 666.384 65.8C660.518 65.8 654.118 68.7333 647.184 74.6V142.6C647.184 147.8 649.518 151.067 654.184 152.4L655.984 153V155H608.984ZM748.609 45.4C744.076 45.4 740.209 44 737.009 41.2C733.943 38.2667 732.409 34.6 732.409 30.2C732.409 25.6667 733.943 22 737.009 19.2C740.209 16.4 744.076 15 748.609 15C753.143 15 756.943 16.4 760.009 19.2C763.076 22 764.609 25.6667 764.609 30.2C764.609 34.6 763.076 38.2667 760.009 41.2C756.943 44 753.143 45.4 748.609 45.4ZM725.009 155V153L727.809 152.2C730.476 151.4 732.276 150.2 733.209 148.6C734.276 147 734.809 144.867 734.809 142.2V79.6C734.809 76.8 734.276 74.7333 733.209 73.4C732.276 71.9333 730.476 70.9333 727.809 70.4L725.009 69.8V67.8L761.609 56L763.609 58L763.009 86.4V142.4C763.009 145.067 763.476 147.2 764.409 148.8C765.476 150.4 767.276 151.6 769.809 152.4L771.809 153V155H725.009ZM809.864 158C802.131 158 795.597 155.8 790.264 151.4C785.064 147 782.464 140.667 782.464 132.4C782.464 126.133 785.664 120.4 792.064 115.2C798.464 109.867 808.531 105.867 822.264 103.2C824.397 102.8 826.797 102.4 829.464 102C832.131 101.467 834.931 100.933 837.864 100.4V84.6C837.864 75.5333 836.731 69.2 834.464 65.6C832.331 61.8667 828.931 60 824.264 60C821.064 60 818.531 61.0667 816.664 63.2C814.797 65.2 813.597 68.7333 813.064 73.8L812.664 76C812.397 81.7333 810.997 85.9333 808.464 88.6C805.931 91.2667 802.797 92.6 799.064 92.6C795.597 92.6 792.731 91.5333 790.464 89.4C788.197 87.2667 787.064 84.4 787.064 80.8C787.064 75.3333 788.931 70.7333 792.664 67C796.531 63.2667 801.597 60.4667 807.864 58.6C814.131 56.7333 820.931 55.8 828.264 55.8C840.131 55.8 849.264 58.7333 855.664 64.6C862.197 70.3333 865.464 79.7333 865.464 92.8V137C865.464 143 868.264 146 873.864 146H878.264L880.064 147.6C877.531 150.8 874.731 153.267 871.664 155C868.731 156.733 864.531 157.6 859.064 157.6C853.197 157.6 848.531 156.267 845.064 153.6C841.731 150.8 839.531 147.133 838.464 142.6C834.464 146.867 830.331 150.533 826.064 153.6C821.931 156.533 816.531 158 809.864 158ZM822.064 145.8C824.731 145.8 827.197 145.2 829.464 144C831.864 142.667 834.664 140.667 837.864 138V104.4C836.531 104.667 835.197 104.933 833.864 105.2C832.531 105.467 830.997 105.733 829.264 106C823.131 107.6 818.197 110.333 814.464 114.2C810.864 117.933 809.064 123 809.064 129.4C809.064 134.867 810.331 139 812.864 141.8C815.397 144.467 818.464 145.8 822.064 145.8Z" fill="#231309" fill-opacity="0.05"/>
</svg>
