<svg width="70" height="70" viewBox="0 0 70 70" fill="none" xmlns="http://www.w3.org/2000/svg">
<path d="M48.2512 10.9375C39.3754 10.9375 35.0004 19.6875 35.0004 19.6875C35.0004 19.6875 30.6254 10.9375 21.7496 10.9375C14.5364 10.9375 8.82425 16.9723 8.75042 24.1732C8.60003 39.1207 20.608 49.7506 33.7699 58.6838C34.1328 58.9307 34.5615 59.0627 35.0004 59.0627C35.4393 59.0627 35.868 58.9307 36.2309 58.6838C49.3914 49.7506 61.3994 39.1207 61.2504 24.1732C61.1766 16.9723 55.4645 10.9375 48.2512 10.9375V10.9375Z" stroke="#40291C" stroke-width="4.6875" stroke-linecap="round" stroke-linejoin="round"/>
<path d="M6.5625 35H21.875L28.4375 21.875L35 43.75L41.5625 30.625L45.9375 39.375H63.4375" stroke="#40291C" stroke-width="4.6875" stroke-linecap="round" stroke-linejoin="round"/>
</svg>
