<svg xmlns="http://www.w3.org/2000/svg" viewBox="0 0 3174.22 631.04"><defs><style>.cls-1{fill:#f2f2f2;}</style></defs><g id="Layer_2" data-name="Layer 2"><g id="Layer_1-2" data-name="Layer 1"><path class="cls-1" d="M2352.22,630.79a2.43,2.43,0,0,1-.76-.87,2.52,2.52,0,0,1-.28-1l0-.26-.07-.52-.11-1-.22-2.08-.38-4.16q-.35-4.15-.6-8.32c-.35-5.54-.59-11.09-.75-16.65-.31-11.11-.25-22.23.11-33.36a566.37,566.37,0,0,1,6.34-66.56c6.94-44.13,19.49-87.73,38.87-128.69A388,388,0,0,1,2429,308.69c6.62-9.29,13.78-18.22,21.31-26.84,1.91-2.13,3.74-4.33,5.71-6.4l5.89-6.26c2-2.08,4.06-4.05,6.08-6.09l3.06-3,3.15-2.93c8.32-7.91,17.19-15.23,26.26-22.28l6.89-5.18c2.3-1.73,4.7-3.32,7-5,4.67-3.36,9.56-6.39,14.38-9.53a407.37,407.37,0,0,1,61.45-31.06l16.7-6.78,4.74,18.88c.7,2.79,1.38,5.59,2,8.4s1.35,5.61,1.87,8.45l1.61,8.52.39,2.13.32,2.15.63,4.29a331.66,331.66,0,0,1,3.23,34.7c.11,5.83.33,11.66.16,17.5-.06,2.92-.07,5.85-.23,8.77l-.5,8.76c-.13,2.92-.46,5.83-.74,8.75s-.52,5.83-1,8.73l-1.17,8.71c-.41,2.91-1,5.79-1.47,8.68l-.77,4.33-.9,4.3c-.63,2.87-1.18,5.75-1.86,8.6l-2.15,8.53c-.71,2.85-1.6,5.65-2.38,8.47a321.37,321.37,0,0,1-11.61,33.16l-1.64,4.06-1.78,4c-1.21,2.66-2.33,5.37-3.63,8l-3.8,7.89-4,7.77c-5.5,10.27-11.46,20.27-17.77,30s-13.22,19-20.36,28.08-14.66,17.77-22.53,26.11-16,16.43-24.43,24.09q-6.32,5.77-12.81,11.31c-2.2,1.81-4.36,3.65-6.57,5.44l-6.64,5.33a476.36,476.36,0,0,1-56.14,38c-9.77,5.6-19.7,10.89-29.84,15.71-5.07,2.43-10.19,4.72-15.36,6.91-2.59,1.07-5.2,2.12-7.81,3.14l-3.94,1.49-2,.71-1,.34s-.29.13-.55.21a5,5,0,0,1-.81.18A4.7,4.7,0,0,1,2352.22,630.79Zm2-3.49a1,1,0,0,0-.57-.55.92.92,0,0,0-.35-.06c-.1,0-.22.06-.08,0l.84-.58,1.7-1.19,3.39-2.36c2.24-1.6,4.48-3.21,6.69-4.86,4.44-3.24,8.83-6.56,13.19-9.89s8.66-6.72,12.91-10.17,8.49-6.89,12.65-10.41c16.68-14.06,32.69-28.71,47.79-44.09,30.23-30.69,57-64.18,78.21-100.41s36.6-75.22,44.72-115.84l1.48-7.62,1.29-7.67c.47-2.55.73-5.13,1.1-7.69s.77-5.14,1-7.72l.82-7.75c.27-2.59.38-5.19.61-7.78.5-5.18.58-10.39.86-15.61a510.43,510.43,0,0,0-2.27-63.11l21.44,12.1a376.72,376.72,0,0,0-57.72,26.46c-4.54,2.72-9.18,5.28-13.6,8.19-2.23,1.43-4.5,2.79-6.69,4.29l-6.56,4.48c-8.63,6.13-17.12,12.51-25.13,19.47s-15.84,14.15-23.2,21.84a319.27,319.27,0,0,0-21.11,24,365.49,365.49,0,0,0-35.41,53.63,423.7,423.7,0,0,0-26.42,59.18,508.48,508.48,0,0,0-17.95,62.75,557.78,557.78,0,0,0-10.21,64.82q-1.65,16.35-2.33,32.83-.33,8.22-.38,16.46c0,2.75,0,5.49,0,8.24l.09,4.11.08,2.05,0,1,0,.51v.25a1.86,1.86,0,0,0-.26-.7A1.64,1.64,0,0,0,2354.18,627.3Z"/><path class="cls-1" d="M2351.86,630.52a2.51,2.51,0,0,1-.56-1,2.87,2.87,0,0,1-.06-1l0-.26.06-.53.12-1,.25-2.07.54-4.14c.39-2.76.8-5.5,1.25-8.25q1.34-8.22,3-16.4,3.23-16.37,7.47-32.51a564.07,564.07,0,0,1,20.9-63.51c16.51-41.51,38.39-81.26,66.35-116.93a386.23,386.23,0,0,1,46.74-49.51,338.92,338.92,0,0,1,26.71-21.47c2.33-1.66,4.6-3.4,7-5l7.12-4.8c2.39-1.59,4.85-3.06,7.28-4.59l3.65-2.28,3.72-2.15c9.86-5.88,20.13-11.06,30.53-15.94l7.87-3.52c2.62-1.18,5.31-2.2,8-3.3,5.3-2.25,10.74-4.12,16.13-6.12a407.25,407.25,0,0,1,66.8-16.71l17.79-2.92.44,19.46q.1,4.32.12,8.64c0,2.88.07,5.77-.05,8.65l-.31,8.66-.09,2.17-.16,2.17-.34,4.32a329.11,329.11,0,0,1-4.52,34.56c-1.18,5.71-2.25,11.44-3.71,17.1-.7,2.84-1.36,5.69-2.16,8.5l-2.42,8.43c-.78,2.82-1.74,5.59-2.65,8.37s-1.81,5.58-2.87,8.31l-3.07,8.24c-1.05,2.74-2.23,5.42-3.35,8.13l-1.71,4.05-1.83,4c-1.24,2.66-2.42,5.35-3.72,8l-4,7.84c-1.31,2.63-2.8,5.16-4.19,7.74a323.26,323.26,0,0,1-18.64,29.77l-2.51,3.6-2.62,3.52c-1.77,2.32-3.45,4.71-5.3,7l-5.45,6.85-5.63,6.69q-11.46,13.2-24,25.33-12.62,12-26.06,22.89c-9,7.2-18.23,14.09-27.75,20.48s-19.2,12.49-29.14,18.1q-7.44,4.24-15,8.2c-2.54,1.28-5.06,2.6-7.61,3.86l-7.66,3.73a476.83,476.83,0,0,1-63.13,24.63c-10.77,3.3-21.62,6.27-32.58,8.72q-8.22,1.88-16.5,3.35c-2.77.48-5.54.91-8.32,1.33l-4.17.59-2.09.25-1.06.12s-.31,0-.58.07a3.84,3.84,0,0,1-.83,0A4.45,4.45,0,0,1,2351.86,630.52Zm2.69-3a1,1,0,0,0-.44-.67.81.81,0,0,0-.33-.13c-.1,0-.23,0-.08,0l1-.39,1.91-.78,3.83-1.55c2.54-1.07,5.08-2.15,7.6-3.26,5.05-2.18,10.06-4.45,15.05-6.74s9.93-4.63,14.84-7.06,9.8-4.84,14.64-7.36c19.37-10,38.22-20.77,56.35-32.43,36.26-23.25,69.75-50,98.46-80.65s52.33-65.27,69.22-103.09l3.13-7.11,2.95-7.19c1-2.38,1.85-4.84,2.77-7.26s1.89-4.83,2.67-7.31l2.51-7.38c.84-2.46,1.52-5,2.32-7.44,1.64-5,2.86-10,4.29-15a509.39,509.39,0,0,0,11.73-62.05l18.24,16.54A376.5,376.5,0,0,0,2625,292.22c-5,1.64-10.13,3.11-15.08,5-2.49.91-5,1.74-7.47,2.71l-7.38,2.92c-9.78,4.07-19.47,8.42-28.82,13.44s-18.58,10.3-27.45,16.17a313.76,313.76,0,0,0-25.89,18.76,364.82,364.82,0,0,0-46.39,44.47,424.09,424.09,0,0,0-38.85,51.87,512.32,512.32,0,0,0-31.38,57.24,558.5,558.5,0,0,0-24.27,61q-5.24,15.59-9.53,31.5c-1.42,5.3-2.77,10.63-4,16q-.93,4-1.77,8l-.82,4-.38,2-.18,1-.09.5,0,.25a1.74,1.74,0,0,0-.1-.74A1.61,1.61,0,0,0,2354.55,627.56Z"/><path class="cls-1" d="M2353.23,627a1.54,1.54,0,0,0-.94.15,1.8,1.8,0,0,0-.58.47l.14-.21.28-.42.55-.86,1.1-1.74,2.16-3.5q2.13-3.52,4.19-7.08,4.11-7.14,8-14.41,7.72-14.55,14.55-29.53a558.22,558.22,0,0,0,23.88-61.11,511.11,511.11,0,0,0,16.15-63.24,424.64,424.64,0,0,0,7-64.43,364.26,364.26,0,0,0-3.53-64.16,316.86,316.86,0,0,0-6.11-31.39c-2.48-10.34-5.55-20.53-9-30.56s-7.51-19.84-11.88-29.48l-3.4-7.18c-1.13-2.39-2.41-4.72-3.61-7.08-2.35-4.74-5.07-9.3-7.62-13.93a376.55,376.55,0,0,0-36.49-52l24.62.36a510,510,0,0,0-33.8,53.35c-2.38,4.65-5,9.19-7.13,13.92-1.1,2.35-2.32,4.65-3.39,7l-3.2,7.1c-1.12,2.35-2,4.79-3,7.17s-2,4.76-2.93,7.2l-2.76,7.27-2.57,7.33c-13.47,39.16-19.83,80.61-19.81,122.58s6.27,84.4,16.88,126.15c5.29,20.89,11.72,41.62,19,62.17q2.73,7.71,5.68,15.37c1.92,5.13,4,10.2,6,15.29s4.19,10.16,6.4,15.2q1.62,3.81,3.32,7.57l1.74,3.75.86,1.88.44.93c.07.14,0,0-.09,0a.72.72,0,0,0-.32-.13A1,1,0,0,0,2353.23,627Zm-.06,4a4.28,4.28,0,0,1-1.35-.68,4.05,4.05,0,0,1-.61-.56c-.18-.19-.35-.44-.37-.45l-.69-.81-1.36-1.61-2.65-3.28c-1.74-2.2-3.47-4.41-5.16-6.65-3.36-4.49-6.63-9.06-9.77-13.71-6.33-9.28-12.24-18.85-17.85-28.62a476.39,476.39,0,0,1-29.31-61.1l-3.05-8c-1-2.66-1.95-5.35-2.93-8q-2.82-8.06-5.36-16.22c-3.43-10.89-6.34-21.95-8.94-33.13s-4.62-22.5-6.28-33.91-2.72-22.94-3.42-34.52c-.54-11.58-.64-23.22-.21-34.86l.45-8.74.7-8.72c.2-2.92.6-5.82.89-8.72l.49-4.36.63-4.34a318.94,318.94,0,0,1,6.71-34.48c.74-2.84,1.38-5.7,2.21-8.52l2.45-8.45c.84-2.8,1.82-5.57,2.73-8.36l1.39-4.17L2274,242c1-2.75,2-5.52,3.1-8.23l3.39-8.12c1.09-2.72,2.37-5.35,3.57-8s2.42-5.34,3.78-7.93l4-7.82c1.33-2.6,2.79-5.13,4.22-7.68,2.8-5.13,5.93-10,9-15a329.62,329.62,0,0,1,20.29-28.33l2.71-3.39,1.35-1.7,1.42-1.64,5.68-6.54c1.89-2.19,3.9-4.26,5.88-6.36s4-4.17,6-6.23L2362,111l11,14.29a407.66,407.66,0,0,1,37.39,57.81c2.58,5.15,5.27,10.22,7.61,15.48,1.19,2.62,2.45,5.2,3.57,7.85l3.34,7.95c4.27,10.66,8.23,21.46,11.43,32.48l1.25,4.12,1.11,4.16c.72,2.77,1.52,5.53,2.18,8.32l1.93,8.37c.66,2.79,1.13,5.61,1.7,8.42,2.16,11.24,3.83,22.56,4.86,33.92a388.16,388.16,0,0,1,.34,68.09c-3.92,45.14-15.08,89.13-31.35,130.73a563.71,563.71,0,0,1-28.1,60.67q-7.93,14.68-16.73,28.86-4.4,7.08-9,14-2.32,3.45-4.72,6.87l-2.42,3.4-1.24,1.68-.62.85-.32.42-.16.21a2.79,2.79,0,0,1-.72.68A2.56,2.56,0,0,1,2353.17,631Z"/><path class="cls-1" d="M2352.79,627.07a1.69,1.69,0,0,0-.89.36,1.89,1.89,0,0,0-.45.59l.09-.24.18-.47.35-1,.68-1.94,1.33-3.89q1.3-3.9,2.52-7.84,2.45-7.86,4.6-15.81,4.34-15.9,7.67-32a557.85,557.85,0,0,0,9.78-64.88,510.06,510.06,0,0,0,1.78-65.25,424.88,424.88,0,0,0-7.38-64.39,366.6,366.6,0,0,0-17.62-61.8c-3.79-10-8.15-19.73-12.9-29.25s-10-18.8-15.55-27.81-11.71-17.69-18.1-26.14l-4.91-6.25c-1.63-2.08-3.39-4.06-5.08-6.1-3.34-4.11-7-8-10.51-11.9a376,376,0,0,0-47.08-42.61l24.09-5.09a513.46,513.46,0,0,0-21.17,59.5c-1.29,5.06-2.79,10.05-3.87,15.15-.56,2.54-1.24,5.05-1.76,7.6l-1.55,7.63c-.57,2.54-.9,5.11-1.38,7.66s-.95,5.1-1.27,7.67l-1.08,7.7-.89,7.71c-4.48,41.18-1.52,83,7.77,123.94s24.77,80.93,44.35,119.3c9.77,19.2,20.62,38,32.29,56.42,2.91,4.62,5.9,9.19,8.93,13.74s6.13,9.07,9.26,13.58,6.33,9,9.59,13.41c1.62,2.24,3.26,4.45,4.92,6.65l2.52,3.27,1.26,1.64.63.81c.11.12,0,0-.09,0a.72.72,0,0,0-.34,0A1,1,0,0,0,2352.79,627.07Zm.83,3.92a4.55,4.55,0,0,1-1.47-.36,4.62,4.62,0,0,1-.72-.41l-.46-.37-.85-.63-1.69-1.27-3.3-2.61c-2.18-1.76-4.36-3.54-6.5-5.35-4.27-3.64-8.47-7.37-12.56-11.21-8.23-7.65-16.1-15.68-23.73-24a477.65,477.65,0,0,1-42.1-53.12l-4.73-7.08c-1.57-2.37-3.08-4.78-4.62-7.17q-4.54-7.23-8.82-14.64c-5.75-9.86-11-20-16-30.33s-9.49-20.92-13.63-31.69-7.72-21.77-11-32.9c-3.09-11.18-5.76-22.51-7.91-34l-1.49-8.62-1.25-8.67c-.45-2.88-.7-5.79-1.06-8.69l-.48-4.36-.35-4.38a321.1,321.1,0,0,1-1.08-35.11c.1-2.93.09-5.86.28-8.79l.52-8.78c.2-2.93.55-5.84.82-8.76l.43-4.38.57-4.36c.39-2.91.73-5.82,1.21-8.71l1.5-8.67c.46-2.89,1.14-5.74,1.72-8.61s1.17-5.74,1.93-8.57L2199,226c.72-2.84,1.6-5.63,2.42-8.43,1.59-5.62,3.56-11.12,5.42-16.64a331,331,0,0,1,13.53-32.11l1.9-3.91.94-1.95,1-1.92,4.1-7.64c1.35-2.55,2.86-5,4.32-7.49s3-4.95,4.46-7.4l10.21-16.58,13.88,11.49a407.1,407.1,0,0,1,49.25,48.13c3.65,4.44,7.4,8.8,10.84,13.41,1.73,2.29,3.54,4.53,5.21,6.87l5,7c6.52,9.46,12.77,19.11,18.33,29.16l2.12,3.74,2,3.81c1.32,2.54,2.71,5,4,7.62l3.73,7.75c1.26,2.57,2.34,5.22,3.52,7.83a342.28,342.28,0,0,1,12.24,32,387.53,387.53,0,0,1,15.38,66.33c6.15,44.89,5,90.26-1.69,134.43a566,566,0,0,1-14,65.38q-4.5,16.07-9.94,31.84-2.73,7.88-5.72,15.66-1.5,3.89-3.09,7.74l-1.61,3.85-.83,1.92-.43,1-.21.48-.11.24a2.67,2.67,0,0,1-.55.83A2.56,2.56,0,0,1,2353.62,631Z"/><path class="cls-1" d="M0,629v-9l13.48-3.6q18-5.38,24.72-16.17t6.73-27.86V291.16q0-19.76-6.73-29.21t-24.72-13L0,245.33v-9l154.56-52.12,9,9,8.09,77.28v7.19a188.68,188.68,0,0,1,32.8-46.28,184.16,184.16,0,0,1,44.93-34.6q24.7-13.47,49-13.48,34.14,0,52.12,18.87t18,47.63q0,30.57-17.52,47.18a58.58,58.58,0,0,1-41.79,16.62q-37.74,0-66.5-37.74l-1.8-1.79q-9-12.58-20.67-13.94T198.6,271.39a67.65,67.65,0,0,0-14.83,19.32,232.58,232.58,0,0,0-11.23,25.61V567q0,36,31.45,44.93l28.76,8.09v9Z"/><path class="cls-1" d="M398.09,629v-9l12.58-3.6q18-5.38,24.71-16.17t6.74-28.76V290.26q0-18.87-6.74-28.31t-24.71-13l-12.58-2.69v-9l164.45-53,9,9-2.7,127.6V572.43q0,18,6.74,28.76t23.81,16.17l9,2.7v9Zm106-492.45q-30.56,0-51.67-19.32t-21.12-49q0-30.54,21.12-49.43T504.13,0q30.54,0,51.22,18.87T576,68.3q0,29.65-20.67,49T504.13,136.59Z"/><path class="cls-1" d="M647.91,629v-9l12.58-3.6q31.44-9,31.45-44V291.16q0-19.76-6.29-29.21t-24.26-13l-13.48-3.59v-9l153.67-52.12,9,9,7.2,53.91a283,283,0,0,1,71-45.82q39.54-18,78.19-18,59.31,0,91.21,32.35t31.9,98.86v258.8q0,35,34.15,44l8.09,2.7v9H920.2v-9l11.68-3.6q31.44-9.87,31.45-44V285.77q0-57.51-57.51-57.51-39.55,0-86.27,39.54V573.33q0,35,31.45,44l8.09,2.7v9Z"/><path class="cls-1" d="M1167.31,629v-9l12.59-3.6q31.42-9,31.44-44V291.16q0-19.76-6.29-29.21t-24.26-13l-13.48-3.59v-9L1321,184.22l9,9,7.2,53.91a283.06,283.06,0,0,1,71-45.82q39.52-18,78.18-18,59.31,0,91.21,32.35t31.9,98.86v258.8q0,35,34.15,44l8.09,2.7v9H1439.6v-9l11.68-3.6q31.44-9.87,31.45-44V285.77q0-57.51-57.51-57.51-39.56,0-86.27,39.54V573.33q0,35,31.45,44l8.09,2.7v9Z"/><path class="cls-1" d="M1914.07,629q-68.29,0-118.62-28.3t-77.73-80.43q-27.43-52.09-27.41-122.21t29.2-121.32q29.21-51.21,80-79.08t114.58-27.85q63.79,0,114.12,27.4t79.53,78.63q29.19,51.22,29.21,122.22t-27.41,122.66q-27.42,51.69-77.28,80T1914.07,629Zm0-18q31.44,0,50.32-18t27.41-63.8q8.54-45.84,8.54-129.41,0-84.45-8.54-130.3t-27.41-63.8q-18.87-18-50.32-18t-50.77,18q-19.35,18-27.86,63.8t-8.54,130.3q0,83.58,8.54,129.41t27.86,63.8Q1882.61,611.09,1914.07,611.07Z"/><path class="cls-1" d="M2951.36,629q-68.3,0-118.62-28.3T2755,520.31q-27.42-52.09-27.41-122.21t29.2-121.32q29.2-51.21,80-79.08t114.58-27.85q63.79,0,114.13,27.4T3145,275.88q29.19,51.22,29.2,122.22t-27.41,122.66q-27.42,51.69-77.28,80T2951.36,629Zm0-18q31.44,0,50.33-18t27.4-63.8q8.53-45.84,8.54-129.41,0-84.45-8.54-130.3t-27.4-63.8q-18.89-18-50.33-18t-50.77,18q-19.34,18-27.86,63.8t-8.54,130.3q0,83.58,8.54,129.41t27.86,63.8Q2919.9,611.09,2951.36,611.07Z"/></g></g></svg>