<svg xmlns="http://www.w3.org/2000/svg" viewBox="0 0 4027.22 863.45"><defs><style>.cls-1{fill:#f2f2f2;}</style></defs><g id="Layer_2" data-name="Layer 2"><g id="Layer_1-2" data-name="Layer 1"><path class="cls-1" d="M272.41,863.45c-1.05-4.36-1.88-8.76-2.73-13.16s-1.54-8.83-2.23-13.26c-1.4-8.86-2.49-17.76-3.51-26.69s-1.78-17.89-2.38-26.87-1.06-18-1.38-27a779.77,779.77,0,0,1,4.11-108.55,739.87,739.87,0,0,1,19.85-108A662.37,662.37,0,0,1,321.21,435q11.61-25.53,25.59-50.11c2.36-4.08,4.71-8.16,7.12-12.22l7.48-12,1.88-3,2-3,3.93-5.9,3.93-5.91c1.35-1.95,2.75-3.86,4.12-5.79l4.14-5.78c1.38-1.92,2.74-3.87,4.2-5.74l8.64-11.31c1.42-1.91,3-3.71,4.45-5.57l4.52-5.52c1.51-1.83,3-3.68,4.55-5.49l4.7-5.37,4.71-5.37c1.57-1.79,3.14-3.58,4.79-5.3l9.77-10.44c1.61-1.76,3.35-3.39,5-5.08l5.09-5,5.09-5,5.25-4.87A543.46,543.46,0,0,1,496,214.3l11.5-8.55c1.91-1.44,3.91-2.75,5.87-4.11l5.91-4c7.81-5.52,16-10.45,24-15.6,16.35-9.81,33-19.13,50.13-27.37,17-8.46,34.58-15.69,52.17-22.68L697,111.51,705.84,166l2.28,14c.75,4.68,1.55,9.34,2.09,14.06L712,208.19l.44,3.53.33,3.55.66,7.1c1.82,18.92,2.4,38,2.49,57.06-.25,9.55-.26,19.08-.94,28.62l-.41,7.15c-.15,2.38-.24,4.77-.49,7.15l-1.35,14.27-.35,3.56c-.12,1.19-.3,2.37-.45,3.56l-.93,7.1c-.65,4.74-1.16,9.49-2,14.19l-2.37,14.13c-.87,4.7-1.9,9.37-2.85,14l-1.46,7-1.68,7-1.68,6.95c-.58,2.32-1.08,4.65-1.75,6.94l-3.87,13.77c-.62,2.3-1.34,4.57-2.07,6.84l-2.16,6.8-2.17,6.81c-.75,2.25-1.57,4.49-2.35,6.73-1.6,4.48-3.13,9-4.85,13.41l-5.22,13.25c-.85,2.22-1.81,4.39-2.74,6.57L669,501.78l-2.83,6.51-3,6.43-3,6.41-1.51,3.21L657,527.5l-6.41,12.62-6.78,12.41c-9.24,16.4-19.1,32.39-29.68,47.82a662.14,662.14,0,0,1-70.67,86,741.06,741.06,0,0,1-82.22,72.8,779,779,0,0,1-90.84,59.58c-7.89,4.39-15.8,8.68-23.83,12.76s-16.09,8.06-24.25,11.84-16.36,7.4-24.68,10.77q-6.22,2.55-12.5,4.93C280.87,860.54,276.68,862.1,272.41,863.45Zm0,0q5.52-3.81,10.92-7.73c3.61-2.61,7.2-5.22,10.75-7.89,7.1-5.33,14.16-10.66,21.08-16.17q20.85-16.38,40.78-33.59c26.56-23,51.92-46.93,75.8-72a900.11,900.11,0,0,0,66.77-78.42c2.54-3.42,5.13-6.8,7.61-10.25l7.43-10.34,7.22-10.47c2.41-3.47,4.67-7.06,7-10.57,9.28-14.11,17.94-28.54,26.15-43.14a614.47,614.47,0,0,0,41.17-90.61l2.07-5.82c.68-1.95,1.4-3.87,2-5.84l3.76-11.74c.66-1.95,1.16-3.94,1.74-5.91l1.73-5.9c.56-2,1.17-3.93,1.71-5.91l1.52-6c4.2-15.83,7.52-31.85,10.19-47.94s4.53-32.31,5.78-48.56l.77-12.2c.17-2,.19-4.07.26-6.11l.19-6.11c.4-8.14.15-16.32.19-24.48-.42-16.33-1.09-32.67-2.94-49l-.59-6.12-.29-3.05-.4-3.06-1.61-12.22c-.47-4.07-1.21-8.13-1.88-12.19l-2-12.19,60.3,34-11.48,4.56c-3.82,1.53-7.68,3-11.41,4.7l-11.29,4.93-2.82,1.23-2.77,1.34-5.56,2.63c-14.92,6.84-29.24,14.74-43.46,22.78-7,4.25-14.09,8.26-20.86,12.81l-5.13,3.33c-1.71,1.11-3.45,2.18-5.1,3.38l-10.07,6.94c-13.25,9.49-26.25,19.37-38.59,30C459.33,357,417.5,409,384.13,467.05c-8.25,14.58-16.14,29.45-23.43,44.69s-14.17,30.77-20.51,46.58A896.21,896.21,0,0,0,307.57,656c-9.11,33.4-16.52,67.51-22.42,102.11q-4.44,26-7.66,52.28c-1.13,8.77-2.05,17.57-2.93,26.41-.45,4.41-.83,8.84-1.19,13.27S272.67,859,272.41,863.45Z"/><path class="cls-1" d="M272.41,863.43c-.06-4.47.1-8.95.24-13.43s.45-9,.76-13.42c.59-9,1.5-17.88,2.48-26.81s2.21-17.84,3.61-26.73,2.94-17.77,4.62-26.63a781,781,0,0,1,28-105,741.91,741.91,0,0,1,43.22-100.94,662.79,662.79,0,0,1,59.34-94.11c11.31-14.9,23.37-29.3,36-43.22,3.2-3.46,6.39-6.92,9.63-10.34l10-10.06,2.5-2.52,2.56-2.45,5.14-4.89,5.14-4.89c1.74-1.6,3.53-3.16,5.29-4.74l5.31-4.72c1.78-1.57,3.53-3.17,5.37-4.66l10.93-9.13c1.8-1.55,3.71-3,5.57-4.44l5.63-4.39c1.88-1.45,3.74-2.93,5.65-4.35l5.77-4.2,5.78-4.19c1.93-1.41,3.85-2.81,5.84-4.12l11.84-8c2-1.36,4-2.57,6-3.84l6.07-3.79,6.08-3.78,6.19-3.59a545.13,545.13,0,0,1,50.88-26.33L647,274c2.18-1,4.42-1.83,6.63-2.72l6.66-2.64c8.83-3.64,17.88-6.65,26.86-9.89,18.11-6,36.42-11.38,54.94-15.62,18.49-4.49,37.19-7.66,55.9-10.59l54.68-8.57L849.26,279l-.87,14.18c-.31,4.73-.55,9.45-1.07,14.18l-1.39,14.16-.34,3.54-.47,3.54-.93,7.07c-2.41,18.85-6.05,37.59-10.18,56.2-2.35,9.26-4.47,18.56-7.24,27.71l-2,6.88c-.67,2.29-1.28,4.6-2.06,6.86l-4.47,13.62-1.12,3.4c-.39,1.13-.82,2.24-1.23,3.37l-2.48,6.72c-1.68,4.47-3.23,9-5.1,13.39l-5.43,13.26C801,491.47,799,495.8,797,500.15l-3,6.51-3.18,6.42-3.18,6.41c-1.07,2.13-2.08,4.29-3.24,6.38l-6.81,12.57c-1.12,2.11-2.33,4.16-3.54,6.22l-3.61,6.16L766.87,557c-1.23,2-2.52,4-3.78,6-2.55,4-5,8.07-7.69,12l-8,11.77c-1.32,2-2.74,3.87-4.13,5.79l-4.18,5.75-4.19,5.73-4.37,5.6-4.37,5.59L724,618.05l-2.26,2.73-9.05,10.89-9.35,10.6c-12.64,14-25.78,27.38-39.52,40.08a661.23,661.23,0,0,1-87.91,68.21,737.84,737.84,0,0,1-96.28,52.83,777.11,777.11,0,0,1-101.77,38c-8.65,2.53-17.32,5-26.06,7.18s-17.47,4.3-26.25,6.18-17.6,3.6-26.45,5.06q-6.65,1.1-13.29,2C281.31,862.47,276.87,863.06,272.41,863.43Zm0,0q6.22-2.49,12.36-5.12c4.09-1.74,8.17-3.5,12.22-5.32,8.11-3.62,16.17-7.27,24.14-11.11q24-11.37,47.19-23.75c31-16.51,61-34.29,89.84-53.46A898.7,898.7,0,0,0,540.61,703c3.23-2.78,6.5-5.49,9.68-8.32l9.54-8.44,9.35-8.61c3.12-2.86,6.11-5.85,9.17-8.76,12.17-11.72,23.81-23.87,35-36.3a614.16,614.16,0,0,0,60.18-79.27l3.3-5.22c1.1-1.74,2.23-3.46,3.25-5.25l6.26-10.62c1.07-1.75,2-3.58,3-5.37l3-5.38c1-1.8,2-3.57,3-5.38l2.81-5.47c7.59-14.51,14.36-29.4,20.53-44.51s11.56-30.5,16.37-46.07l3.44-11.73c.62-1.94,1.08-3.93,1.6-5.9l1.54-5.93c2.19-7.85,3.76-15.88,5.59-23.82,3.21-16,6.16-32.11,8-48.42l.78-6.1.39-3.05.28-3.06,1.13-12.27c.45-4.08.62-8.2.87-12.31l.73-12.33,51.29,46.52-12.2,1.91c-4.07.65-8.15,1.22-12.17,2.06l-12.1,2.32-3,.58-3,.68-6,1.34c-16.06,3.37-31.77,7.91-47.42,12.62-7.73,2.6-15.57,4.94-23.17,7.88l-5.74,2.11c-1.92.71-3.85,1.37-5.72,2.17l-11.35,4.55c-15,6.32-29.88,13.08-44.28,20.76-57.85,30.3-110.12,71.69-155.5,121-11.27,12.39-22.25,25.16-32.73,38.41s-20.62,26.87-30.3,40.89a898.85,898.85,0,0,0-53.4,88.09c-16.27,30.56-31,62.19-44.44,94.63q-10.05,24.33-19,49.29c-3,8.3-5.88,16.69-8.69,25.11-1.42,4.21-2.76,8.44-4.09,12.68S273.65,859.14,272.41,863.43Z"/><path class="cls-1" d="M272.41,863.43c2-4,4-8,5.9-12s3.83-8,5.67-12.07c3.69-8.07,7.34-16.13,10.79-24.28q10.49-24.35,19.75-49c12.36-32.85,23.17-66,32.14-99.48a897.3,897.3,0,0,0,21.13-100.82c2.5-16.85,4.49-33.72,5.78-50.57s2.09-33.66,2.31-50.4c.49-67-9.45-132.92-31-194.56-5.28-15.44-11.52-30.53-18.18-45.4l-5.18-11.07c-.83-1.87-1.79-3.67-2.7-5.49L316,202.83c-3.55-7.34-7.67-14.41-11.55-21.58-8.22-14.12-16.6-28.17-26-41.6L275,134.57,273.27,132l-1.82-2.49-7.26-10c-2.36-3.35-4.95-6.56-7.49-9.81L249.1,100l69.23,1-7.88,9.51c-2.63,3.17-5.31,6.3-7.77,9.58l-7.56,9.74-1.89,2.43-1.79,2.5-3.6,5C278,153,269.2,166.73,260.61,180.63c-4.09,7.05-8.42,14-12.19,21.22l-2.92,5.38c-1,1.79-2,3.56-2.86,5.4l-5.49,10.93c-7.11,14.66-13.76,29.56-19.5,44.84s-11,30.75-15.38,46.53l-1.69,5.91c-.52,2-1,4-1.5,6l-1.49,6c-.49,2-1.06,4-1.47,6l-2.68,12c-.47,2-.82,4-1.21,6l-1.16,6.07a616.62,616.62,0,0,0-10.15,99c-.27,16.74-.07,33.58.82,50.44.25,4.22.39,8.45.72,12.67l.95,12.67,1.21,12.68c.4,4.24.93,8.46,1.39,12.69a900.87,900.87,0,0,0,18.11,101.39c8,33.69,17.78,67.19,29.14,100.4q8.52,24.9,18.26,49.57c3.2,8.25,6.61,16.42,10.06,24.6,1.71,4.1,3.5,8.16,5.3,12.23S270.51,859.38,272.41,863.43Zm0,0c-3-3.32-5.84-6.78-8.7-10.23s-5.59-7-8.32-10.57c-5.47-7.11-10.69-14.41-15.87-21.76s-10.13-14.85-15-22.44-9.55-15.28-14.15-23A779.53,779.53,0,0,1,162,678.12a738.34,738.34,0,0,1-34.28-104.34,662.27,662.27,0,0,1-17.66-109.86c-1.36-18.66-1.8-37.44-1.51-56.27l.41-14.13.82-14.13.21-3.54.31-3.53.62-7.07.63-7.07.85-7.05.87-7.06c.3-2.35.56-4.71,1-7.05L116.42,323c.74-4.69,1.7-9.35,2.58-14,.45-2.33.88-4.67,1.36-7l1.56-7,1.57-7c.52-2.33,1-4.65,1.66-6.95l3.6-13.85c.58-2.31,1.32-4.58,2-6.87l2.06-6.85,2.06-6.86,2.27-6.79c1.55-4.52,3-9.07,4.63-13.56l5.08-13.4c1.64-4.49,3.6-8.85,5.42-13.26L155,193c.47-1.1.91-2.21,1.4-3.3l1.5-3.25,6-13c1-2.18,2.11-4.28,3.18-6.41l3.26-6.38c4.22-8.58,9-16.82,13.62-25.19,9.69-16.42,19.83-32.59,30.94-48l4.14-5.81,2.08-2.89,2.16-2.83L232,64.62c2.84-3.81,5.89-7.43,8.89-11.09l9-11L285.08,0l34.1,43.6c11.67,14.91,23.16,30,33.61,45.9,10.64,15.75,20.32,32.2,29.48,48.92,4.34,8.5,8.9,16.88,12.87,25.57l3.06,6.48c1,2.16,2.07,4.3,3,6.51l5.62,13.18a544.2,544.2,0,0,1,19.2,54l2.08,6.85L430,257.9l1.85,6.91c.6,2.31,1.28,4.59,1.78,6.93l3.18,13.94c.55,2.32,1,4.66,1.45,7l1.36,7,1.36,7c.41,2.35.77,4.7,1.15,7l1.12,7c.34,2.35.77,4.69,1,7.05L446,342c.32,2.35.51,4.71.73,7.07l.66,7.08c.21,2.36.46,4.71.64,7.07l.41,7.09.41,7.08.21,3.54.1,3.54.41,14.15c0,4.71,0,9.42,0,14.13-.25,18.83-1.27,37.58-3.18,56.18a662.42,662.42,0,0,1-20.9,109.28,740.29,740.29,0,0,1-37.34,103.26,779.66,779.66,0,0,1-51.2,95.81c-4.82,7.62-9.7,15.19-14.8,22.61s-10.26,14.78-15.61,22-10.82,14.33-16.5,21.28q-4.25,5.22-8.61,10.32C278.44,856.82,275.51,860.2,272.41,863.43Z"/><path class="cls-1" d="M272.41,863.42q1.65-6.49,3.11-13c1-4.34,2-8.67,2.86-13,1.82-8.69,3.6-17.36,5.16-26.06q4.84-26.07,8.43-52.16c4.79-34.77,8-69.53,9.37-104.12a901,901,0,0,0-1.68-103c-1.29-17-3.07-33.88-5.54-50.59s-5.41-33.29-8.89-49.67C270.9,386.34,246.64,324.24,212,268.9c-8.56-13.9-18-27.23-27.76-40.27L176.71,219c-1.21-1.64-2.55-3.18-3.84-4.76l-3.9-4.71c-5.08-6.38-10.66-12.35-16-18.5-11.13-11.95-22.41-23.8-34.58-34.81L113.85,152l-2.24-2.11-2.32-2L100,139.78c-3.05-2.75-6.28-5.31-9.47-7.91L81,124.06l67.75-14.3-5.58,11c-1.87,3.67-3.79,7.31-5.47,11.06L132.46,143l-1.31,2.8-1.2,2.82-2.4,5.66c-6.67,15-12.24,30.38-17.55,45.83-2.42,7.78-5.11,15.51-7.19,23.39l-1.66,5.89c-.54,2-1.14,3.91-1.59,5.9l-2.94,11.87c-3.7,15.87-6.89,31.88-9.11,48s-4,32.43-4.72,48.79l-.34,6.13c-.07,2.05-.09,4.1-.14,6.15l-.14,6.15c0,2.05-.16,4.1-.11,6.15l0,12.33c0,2.06.08,4.11.15,6.17l.22,6.17a614.5,614.5,0,0,0,12,98.81c3.43,16.39,7.34,32.76,11.94,49,1.18,4.06,2.25,8.15,3.5,12.19l3.73,12.15,4,12.11c1.32,4,2.78,8,4.17,12.06a897.62,897.62,0,0,0,40.06,94.88c15.22,31.1,32.19,61.6,50.61,91.48q13.81,22.41,28.76,44.31c4.95,7.33,10.07,14.55,15.25,21.77,2.58,3.61,5.21,7.18,7.87,10.75S269.67,859.89,272.41,863.42Zm0,0c-3.66-2.57-7.19-5.32-10.74-8.06s-7-5.6-10.45-8.47c-6.91-5.72-13.61-11.68-20.29-17.71s-13.16-12.24-19.55-18.58-12.68-12.79-18.88-19.34a777.54,777.54,0,0,1-68.69-84.18A740.06,740.06,0,0,1,67.32,612.9a661.71,661.71,0,0,1-41.5-103.24c-5.45-17.9-10-36.11-13.91-54.54L9.19,441.25l-2.32-14-.58-3.5-.48-3.51-1-7-.94-7-.73-7.07-.72-7.07c-.23-2.36-.5-4.72-.63-7.09l-1-14.21c-.31-4.74-.4-9.49-.58-14.24-.07-2.38-.17-4.76-.21-7.13l0-7.14v-7.15c0-2.38,0-4.76.08-7.14l.45-14.3c.06-2.38.28-4.76.42-7.14l.49-7.14.5-7.14.72-7.12c.5-4.75.92-9.51,1.51-14.25l2-14.19c.6-4.75,1.55-9.43,2.35-14.14l1.25-7.06c.22-1.17.4-2.35.64-3.52l.74-3.51,3-14c.48-2.34,1.11-4.65,1.69-7l1.76-6.94c2.22-9.3,5.08-18.4,7.72-27.58,5.82-18.15,12.13-36.17,19.56-53.66l2.76-6.58L49,109.45l1.49-3.24,5.95-12.93c1.93-4.34,4.11-8.54,6.23-12.77L69.1,67.82,94,18.54l42.9,35c14.67,12,29.22,24.14,42.92,37.34,13.85,13,26.93,26.91,39.56,41.2,6.12,7.33,12.42,14.49,18.21,22.1l4.41,5.63c1.47,1.89,3,3.74,4.36,5.69l8.39,11.61a546.56,546.56,0,0,1,30.66,48.4l3.53,6.22,3.35,6.33,3.33,6.34c1.09,2.12,2.26,4.19,3.26,6.36L305,263.63c1.05,2.14,2,4.32,3,6.5l2.88,6.54,2.87,6.54c.92,2.19,1.78,4.4,2.68,6.61l2.64,6.62c.86,2.22,1.8,4.4,2.57,6.65l4.84,13.39c.83,2.22,1.54,4.49,2.28,6.74l2.2,6.75c.73,2.26,1.49,4.5,2.18,6.76l2,6.82,2,6.82,1,3.4.89,3.43,3.52,13.71c1.08,4.59,2.09,9.19,3.11,13.79,3.91,18.42,7.06,36.93,9.31,55.5a662.78,662.78,0,0,1,3.77,111.19,740.3,740.3,0,0,1-13.59,109A781,781,0,0,1,316.29,765.1c-3,8.5-6.12,17-9.45,25.32s-6.74,16.69-10.36,24.91-7.38,16.37-11.38,24.4q-3,6-6.12,12C276.84,855.64,274.72,859.59,272.41,863.42Z"/><path class="cls-1" d="M1207.56,749.93v-8.24l12.36-3.3q16.47-4.95,22.67-14.84t6.18-25.55V440q0-18.12-6.18-26.79t-22.67-12L1207.56,398v-8.25l141.76-47.8,8.25,8.24,7.41,70.88v6.6a173.44,173.44,0,0,1,30.09-42.45,168.47,168.47,0,0,1,41.21-31.73q22.65-12.36,44.92-12.36,31.3,0,47.81,17.3t16.48,43.69q0,28-16.07,43.27a53.77,53.77,0,0,1-38.33,15.25q-34.62,0-61-34.62l-1.64-1.65q-8.25-11.53-19-12.77t-19.78,10.3a62.1,62.1,0,0,0-13.6,17.72,212.08,212.08,0,0,0-10.3,23.49v230q0,33,28.85,41.21l26.37,7.42v8.24Z"/><path class="cls-1" d="M1572.68,749.93v-8.24l11.54-3.3q16.48-4.95,22.67-14.84t6.18-26.37v-258q0-17.31-6.18-26t-22.67-12l-11.54-2.47v-8.24l150.83-48.63,8.25,8.24-2.48,117V698q0,16.5,6.18,26.38t21.85,14.84l8.24,2.47v8.24Zm97.26-451.67q-28,0-47.39-17.73t-19.37-44.92q0-28,19.37-45.33T1669.94,173q28,0,47,17.31t19,45.33q0,27.21-19,44.92T1669.94,298.26Z"/><path class="cls-1" d="M1801.82,749.93v-8.24l11.54-3.3q28.83-8.24,28.84-40.39V440q0-18.12-5.77-26.79t-22.25-12L1801.82,398v-8.25l140.94-47.8,8.24,8.24,6.6,49.45a259.64,259.64,0,0,1,65.11-42q36.26-16.47,71.71-16.48,54.4,0,83.65,29.67t29.27,90.67V698.83q0,32.14,31.32,40.39l7.42,2.47v8.24H2051.56v-8.24l10.72-3.3q28.83-9.06,28.84-40.39V435.08q0-52.74-52.75-52.75-36.27,0-79.12,36.26V698.83q0,32.14,28.84,40.39l7.42,2.47v8.24Z"/><path class="cls-1" d="M2278.21,749.93v-8.24l11.54-3.3q28.85-8.24,28.85-40.39V440q0-18.12-5.77-26.79t-22.26-12L2278.21,398v-8.25l140.95-47.8,8.24,8.24,6.59,49.45a260,260,0,0,1,65.11-42q36.27-16.47,71.71-16.48,54.41,0,83.66,29.67t29.26,90.67V698.83q0,32.14,31.32,40.39l7.42,2.47v8.24H2528v-8.24l10.72-3.3q28.83-9.06,28.84-40.39V435.08q0-52.74-52.74-52.75-36.29,0-79.13,36.26V698.83q0,32.14,28.85,40.39l7.41,2.47v8.24Z"/><path class="cls-1" d="M2963.13,762.29q-62.64,0-108.79-26T2783,662.56q-25.15-47.79-25.14-112.09t26.79-111.27q26.78-47,73.35-72.53t105.09-25.55q58.51,0,104.68,25.14t72.94,72.11q26.77,47,26.79,112.1T3142.4,663q-25.16,47.4-70.88,73.35T2963.13,762.29Zm0-16.48q28.85,0,46.16-16.49t25.14-58.51q7.82-42,7.83-118.7,0-77.46-7.83-119.51t-25.14-58.52q-17.31-16.47-46.16-16.48t-46.56,16.48q-17.75,16.5-25.55,58.52t-7.84,119.51q0,76.67,7.84,118.7t25.55,58.51Q2934.27,745.82,2963.13,745.81Z"/><path class="cls-1" d="M3383.49,752.41,3237.6,402.11q-11.55-28-39.56-37.09l-11.54-3.3v-8.24H3400v8.24l-14.83,3.3q-32.14,8.25-19.78,42.86l86.54,230,80.77-228.31q6.59-16.48,3.3-27.2t-19.78-15.66l-20.61-4.95v-8.24h119.51v8.24l-23.9,5.77q-15.66,4.14-24.31,12.37t-14.43,24.72L3431.29,752.41Z"/><path class="cls-1" d="M3822.82,762.29q-62.66,0-108.8-26t-71.3-73.77q-25.16-47.79-25.14-112.09t26.79-111.27q26.77-47,73.35-72.53t105.1-25.55q58.51,0,104.67,25.14t73,72.11q26.76,47,26.78,112.1T4002.08,663q-25.14,47.4-70.88,73.35T3822.82,762.29Zm0-16.48q28.83,0,46.15-16.49t25.14-58.51q7.83-42,7.83-118.7,0-77.46-7.83-119.51T3869,374.08q-17.31-16.47-46.15-16.48t-46.57,16.48q-17.74,16.5-25.55,58.52t-7.84,119.51q0,76.67,7.84,118.7t25.55,58.51Q3794,745.82,3822.82,745.81Z"/></g></g></svg>