<svg width="61" height="61" viewBox="0 0 61 61" fill="none" xmlns="http://www.w3.org/2000/svg">
<path d="M57.6215 50.02H37.8197V54.9H57.8241C58.265 54.9217 58.7001 54.7911 59.0561 54.5301C59.4122 54.2691 59.6677 53.8935 59.7797 53.4665V52.2831C59.7797 52.2831 59.7651 50.02 57.6215 50.02ZM54.8826 49.0562C56.1825 49.0542 57.4285 48.5363 58.3467 47.6163C59.2649 46.6962 59.7804 45.4492 59.7797 44.1493C59.7797 41.4324 57.5837 39.2413 54.8826 39.2413C54.2394 39.2424 53.6027 39.3703 53.0089 39.6176C52.4151 39.8649 51.8758 40.2268 51.4219 40.6826C50.9681 41.1384 50.6085 41.6792 50.3637 42.274C50.1189 42.8688 49.9937 43.5061 49.9953 44.1493C49.9953 46.8565 52.1852 49.0562 54.8826 49.0562ZM44.5688 48.8C47.1381 48.8 49.2048 46.9895 49.2048 44.4238C49.2035 41.8631 47.1295 40.5198 44.5797 40.5003L37.8197 41.3568V48.8H44.5688ZM22.5978 16.9982C25.5978 16.9982 28.0243 14.5582 28.0243 11.5485C28.0243 8.53876 25.5978 6.09998 22.5978 6.09998C19.6002 6.09998 17.17 8.53876 17.17 11.5485C17.17 14.5582 19.6002 16.9982 22.5978 16.9982ZM17.0565 34.6346L17.0077 34.5638L14.5482 28.8371L14.5446 40.26H21.8951L23.5006 38.552L19.1464 36.8757C18.1143 36.4877 17.3811 35.6093 17.0565 34.6346ZM18.6145 34.1209C18.8524 34.6553 19.2928 35.0884 19.8467 35.2873L28.2366 38.397C28.4922 38.5095 28.7675 38.5704 29.0467 38.5762C29.326 38.582 29.6035 38.5325 29.8636 38.4308C30.1236 38.329 30.361 38.1768 30.5621 37.983C30.7632 37.7892 30.924 37.5576 31.0353 37.3015C31.2624 36.7824 31.275 36.1946 31.0702 35.6663C30.8653 35.1381 30.4598 34.7123 29.9422 34.4821L22.2013 31.5589L19.8101 25.8237L21.3692 25.243L23.3957 30.1572L29.2797 32.3385V26.3337L32.4029 28.1917L33.9596 36.0339C34.0493 36.2992 34.1906 36.5442 34.3755 36.7545C34.5604 36.9649 34.7852 37.1365 35.0368 37.2595C35.2884 37.3825 35.5619 37.4544 35.8415 37.471C36.1211 37.4876 36.4012 37.4487 36.6656 37.3564C37.1981 37.1669 37.6345 36.7752 37.88 36.2661C38.1255 35.757 38.1604 35.1716 37.9771 34.637L36.2325 27.084C36.1182 26.6658 35.879 26.2926 35.5469 26.014C34.6526 25.0234 30.1301 19.9665 29.808 19.6286C29.3358 19.1552 28.2561 18.3 26.2163 18.3H18.8963C14.7361 18.3 13.9358 22.5456 14.7861 24.705L18.6145 34.1209ZM36.5997 41.48H3.61947C2.41899 41.48 1.21973 42.1571 1.21973 43.6467V54.9H36.5997V41.48Z" fill="#40291C"/>
</svg>
