<svg width="61" height="61" viewBox="0 0 61 61" fill="none" xmlns="http://www.w3.org/2000/svg">
<path d="M33.042 5.08331C31.6938 5.08331 30.4008 5.61888 29.4475 6.57219C28.4942 7.5255 27.9587 8.81846 27.9587 10.1666C27.9587 11.5148 28.4942 12.8078 29.4475 13.7611C30.4008 14.7144 31.6938 15.25 33.042 15.25C35.8632 15.25 38.1253 12.9879 38.1253 10.1666C38.1253 8.81846 37.5898 7.5255 36.6365 6.57219C35.6831 5.61888 34.3902 5.08331 33.042 5.08331ZM10.167 17.7916V22.875H25.417V38.125L12.5307 51.0112L16.1145 54.6458L33.1945 37.5404L43.2087 43.5387V53.375H48.292V42.1154C48.292 41.2004 47.8345 40.3871 47.0212 39.9296L38.1253 34.5666V22.875H53.3753V17.7916H10.167Z" fill="#40291C"/>
</svg>
